<?xml version="1.0" standalone="no"?>
<!DOCTYPE svg PUBLIC "-//W3C//DTD SVG 20010904//EN"
 "http://www.w3.org/TR/2001/REC-SVG-20010904/DTD/svg10.dtd">
<svg version="1.0" xmlns="http://www.w3.org/2000/svg"
 width="131.000000pt" height="140.000000pt" viewBox="0 0 131.000000 140.000000"
 preserveAspectRatio="xMidYMid meet">
<metadata>
Created by potrace 1.10, written by Peter Selinger 2001-2011
</metadata>
<g transform="translate(0.000000,140.000000) scale(0.100000,-0.100000)"
fill="#000000" stroke="none">
<path d="M710 1203 c-41 -15 -54 -82 -21 -105 16 -11 20 -29 23 -91 l3 -77
-77 0 -78 0 0 75 0 75 -101 0 c-96 0 -102 1 -121 25 -23 30 -47 32 -78 7 -30
-24 -30 -70 0 -94 26 -21 56 -16 82 13 14 16 30 19 102 19 l86 0 0 -60 0 -60
-55 0 -55 0 0 -55 0 -55 -76 0 c-65 0 -78 3 -93 21 -23 29 -69 28 -93 -1 -24
-30 -23 -52 5 -78 31 -29 61 -28 85 3 18 23 27 25 96 25 l76 0 0 -80 0 -80
-77 0 -78 0 3 -94 c3 -89 2 -95 -22 -119 -45 -45 -24 -107 36 -107 52 0 77 69
38 105 -17 15 -20 31 -20 102 l0 83 60 0 60 0 0 -56 0 -57 55 6 55 6 0 -78 c0
-70 -3 -80 -25 -101 -29 -27 -31 -47 -9 -78 38 -54 133 -6 106 54 -7 13 -19
27 -27 30 -12 5 -15 24 -15 88 l0 81 77 -1 76 -2 -2 -76 -2 -76 101 0 c88 0
104 -3 118 -19 27 -30 56 -34 85 -10 35 26 35 61 1 88 -35 28 -58 26 -82 -4
-18 -23 -26 -25 -105 -25 l-84 0 1 63 2 62 52 -3 52 -4 0 56 0 56 78 0 c66 0
82 -3 97 -20 36 -39 105 -14 105 38 0 29 -34 62 -64 62 -14 0 -33 -11 -44 -25
-18 -23 -27 -25 -96 -25 l-76 0 0 80 0 80 80 0 80 0 0 98 c0 86 3 101 20 117
41 37 16 105 -39 105 -58 0 -80 -63 -36 -104 23 -21 25 -31 25 -105 l0 -81
-65 0 -65 0 0 55 0 55 -53 0 -52 0 1 74 c1 61 5 77 23 95 21 21 27 56 13 77
-7 10 -47 35 -54 33 -2 0 -10 -3 -18 -6z m48 -59 c3 -23 -18 -37 -43 -28 -16
6 -20 35 -8 48 14 14 48 1 51 -20z m-434 -68 c9 -13 7 -20 -7 -31 -25 -18 -47
-8 -47 20 0 37 34 44 54 11z m691 -26 c0 -18 -6 -26 -23 -28 -27 -4 -40 22
-22 44 19 22 45 13 45 -16z m-195 -340 l0 -185 -185 0 -185 0 0 185 0 185 185
0 185 0 0 -185z m-585 102 c9 -23 -21 -49 -42 -36 -24 15 -26 29 -8 47 18 18
40 13 50 -11z m860 -182 c8 -26 -1 -40 -26 -40 -22 0 -34 22 -25 45 8 22 44
18 51 -5z m-790 -260 c0 -18 -6 -26 -23 -28 -13 -2 -25 3 -28 12 -10 26 4 48
28 44 17 -2 23 -10 23 -28z m693 8 c18 -18 15 -36 -7 -48 -28 -14 -55 13 -41
41 12 22 30 25 48 7z m-430 -85 c13 -26 4 -43 -23 -43 -27 0 -40 26 -24 46 16
19 37 17 47 -3z"/>
</g>
</svg>
